<svg width="823" height="180" viewBox="0 0 823 180" fill="none" xmlns="http://www.w3.org/2000/svg">
<path d="M26.5247 129.542H0V6.27402H28.7865L84.4062 91.2971V6.27402H110.931V129.542H81.9388L26.5247 46.9864V129.542Z" fill="#011932"/>
<path d="M220.926 129.536L262.667 6.26825H294.846L340.493 129.536H310.576L302.865 107.227H257.012L250.227 129.536H220.926ZM263.078 86.3565H295.977L278.397 33.2042L263.078 86.3565Z" fill="#011932"/>
<path d="M175.596 104.758C148.866 104.758 127.07 82.9627 127.07 56.2323C127.07 29.5019 148.866 7.70642 175.596 7.70642C202.327 7.70642 224.122 29.5019 224.122 56.2323C224.122 82.9627 202.327 104.758 175.596 104.758ZM175.596 33.6143C163.156 33.6143 152.978 43.7924 152.978 56.2323C152.978 68.6722 163.156 78.8503 175.596 78.8503C188.036 78.8503 198.214 68.6722 198.214 56.2323C198.214 43.7924 188.036 33.6143 175.596 33.6143Z" fill="#011932"/>
<path d="M389.751 129.54V6.272H404.761V129.54H389.751Z" fill="#011932"/>
<path d="M517.332 53.6652C516.715 53.5624 515.996 53.4596 515.173 53.3568C514.351 53.254 513.425 53.254 512.397 53.254C508.285 53.254 504.892 53.9737 502.219 55.3102C499.546 56.6467 497.593 57.7776 496.462 58.4973C497.798 61.0675 498.827 63.3293 499.341 65.3855C499.957 67.4416 500.266 70.2175 500.266 73.6102C500.266 84.3023 497.387 92.4242 491.733 97.8731C486.078 103.322 477.134 106.612 465.002 107.948C461.404 108.36 458.217 109.182 455.441 110.416C452.768 111.65 451.329 114.22 451.329 117.921C451.329 124.192 454.824 127.379 461.712 127.379H483.2C492.144 127.379 499.032 129.333 503.967 133.239C508.902 137.146 511.369 142.492 511.369 149.278C511.369 158.222 507.257 165.419 499.032 170.97C490.807 176.419 479.19 179.195 464.18 179.195C450.815 179.195 440.739 177.242 434.057 173.232C427.374 169.325 423.982 163.671 423.982 156.577C423.982 153.287 424.598 150.409 425.935 147.838C427.271 145.268 429.122 143.006 431.384 141.156C433.646 139.305 436.421 137.763 439.608 136.735C442.796 135.707 446.291 134.987 449.992 134.782C446.702 133.959 444.029 132.211 441.973 129.847C439.917 127.379 438.786 124.603 438.786 121.416C438.786 117.715 440.02 114.528 442.59 111.855C445.16 109.182 448.45 107.332 452.46 106.303C449.478 105.481 446.497 104.144 443.618 102.294C440.739 100.546 438.169 98.2844 435.907 95.7141C433.646 93.1439 431.898 90.0596 430.458 86.6669C429.122 83.1714 428.402 79.2647 428.402 74.8439C428.402 69.4978 429.328 64.7686 431.178 60.5534C433.029 56.3383 435.599 52.7399 438.992 49.6557C442.282 46.6742 446.188 44.3096 450.506 42.6647C454.927 41.0197 459.656 40.1972 464.694 40.1972C470.451 40.1972 475.797 41.4309 480.629 43.8984C485.461 46.3658 489.162 49.4501 491.836 53.1512C492.555 51.7119 493.583 50.1697 494.92 48.5248C496.256 46.8798 497.901 45.3377 499.752 43.8984C501.705 42.459 503.761 41.2253 506.126 40.3C508.388 39.3748 510.958 38.8607 513.734 38.8607C514.659 38.8607 515.379 38.8607 515.996 38.9635C516.51 39.0663 517.229 39.1691 517.949 39.272L517.332 53.6652ZM458.217 138.791C451.946 138.791 447.216 139.922 443.926 142.184C440.739 144.446 439.094 148.147 439.094 153.39C439.094 155.96 439.608 158.222 440.534 160.073C441.459 161.923 443.001 163.363 445.16 164.493C447.216 165.624 449.992 166.447 453.385 166.961C456.778 167.578 460.993 167.783 466.03 167.783C476.517 167.783 484.125 166.55 488.854 164.185C493.583 161.82 495.948 157.811 495.948 152.259C495.948 147.53 494.303 144.137 490.91 141.978C487.518 139.819 482.069 138.688 474.461 138.688H458.217V138.791ZM464.9 96.6394C471.582 96.6394 476.723 94.7889 480.321 91.0877C483.919 87.3866 485.77 81.7321 485.77 74.227C485.77 59.1141 478.882 51.609 465.105 51.609C458.217 51.609 452.871 53.5624 448.964 57.3664C445.057 61.1703 443.104 66.8248 443.104 74.227C443.104 81.7321 445.057 87.3866 448.861 91.0877C452.665 94.7889 458.011 96.6394 464.9 96.6394Z" fill="#011932"/>
<path d="M596.497 71.8621C596.497 69.1891 596.086 66.6189 595.263 64.1515C594.441 61.684 593.207 59.5251 591.665 57.6745C590.123 55.8239 588.067 54.2818 585.599 53.1509C583.132 52.02 580.253 51.4031 576.861 51.4031C572.543 51.4031 568.739 52.3284 565.552 54.2818C562.364 56.2352 559.589 58.7026 557.43 61.684C555.271 64.7683 553.626 68.161 552.495 71.965C551.467 75.7689 550.85 79.5728 550.85 83.3768V129.538H536.457V60.3475C536.457 58.497 536.354 55.8239 536.148 52.3284C535.943 48.8329 535.737 45.543 535.531 42.3559H549.616C549.719 43.0756 549.822 44.2065 549.925 45.6458C550.027 47.0852 550.027 48.6273 550.13 50.2722C550.233 51.9172 550.233 53.5621 550.233 55.2071C550.233 56.852 550.233 58.3942 550.233 59.6279H551.158C552.186 57.2633 553.626 54.8986 555.476 52.534C557.43 50.2722 559.589 48.1132 562.159 46.2627C564.729 44.4121 567.505 42.87 570.589 41.7391C573.673 40.6082 577.066 39.9913 580.767 39.9913C584.982 39.9913 588.992 40.6082 592.693 41.8419C596.394 43.0756 599.581 44.9262 602.254 47.3936C604.927 49.9638 607.086 53.2537 608.629 57.2633C610.171 61.2728 610.993 66.1048 610.993 71.8621V129.435H596.703V71.8621H596.497Z" fill="#011932"/>
<path d="M656.543 10.795C656.543 14.1877 655.515 16.9635 653.356 19.1225C650.991 21.1787 648.421 22.2068 645.748 22.2068C643.177 22.2068 640.813 21.1787 638.551 19.1225C636.392 17.0663 635.364 14.2905 635.364 10.795C635.364 7.29944 636.392 4.62641 638.551 2.87865C640.607 0.925282 642.972 0 645.748 0C648.523 0 651.094 0.925282 653.356 2.87865C655.412 4.72922 656.543 7.40225 656.543 10.795ZM638.654 129.539V42.4601H653.047V129.539H638.654Z" fill="#011932"/>
<path d="M688.824 42.4605V24.2633L703.218 22.4128V42.4605H729.331V53.8723H703.218V105.894C703.218 107.95 703.32 109.903 703.629 111.548C703.937 113.296 704.554 114.838 705.479 116.175C706.405 117.511 707.638 118.642 709.283 119.362C710.928 120.184 712.984 120.493 715.555 120.493C718.433 120.493 720.695 120.184 722.237 119.67C723.779 119.156 725.322 118.436 726.864 117.408L729.228 128.306C727.378 129.231 725.219 130.054 722.649 130.774C720.078 131.493 717.2 131.904 713.91 131.904C706.61 131.904 700.545 129.951 695.815 126.147C691.086 122.343 688.722 115.969 688.722 107.23V53.7695H674.945V42.4605H688.824Z" fill="#011932"/>
<path d="M759.662 87.5917C759.868 98.9007 762.54 107.125 767.578 112.472C772.616 117.818 778.99 120.388 786.701 120.388C790.71 120.388 794.103 119.771 796.776 118.537C799.449 117.304 801.711 115.967 803.561 114.425C805.515 112.78 806.954 110.827 808.085 108.565L821.039 115.145C819.291 118.434 816.824 121.313 813.637 123.575C810.964 125.631 807.468 127.584 803.047 129.229C798.626 130.874 793.28 131.697 786.906 131.697C779.71 131.697 773.438 130.463 768.195 128.099C762.952 125.734 758.634 122.444 755.241 118.229C751.848 114.116 749.278 109.182 747.633 103.63C745.988 98.0783 745.166 92.2182 745.166 86.0496C745.166 78.853 746.194 72.376 748.25 66.6187C750.306 60.8614 753.185 56.0294 756.783 52.1226C760.484 48.2159 764.802 45.2344 769.84 43.0754C774.878 41.0192 780.429 39.8883 786.289 39.8883C792.355 39.8883 797.598 40.9164 802.225 43.0754C806.748 45.1316 810.552 48.1131 813.534 51.917C816.515 55.7209 818.674 60.1417 820.216 65.2822C821.759 70.4226 822.478 75.9743 822.478 82.0401C822.478 83.0682 822.478 83.8906 822.478 84.8159C822.478 85.6384 822.375 86.5637 822.273 87.5917H759.662ZM785.57 51.5058C778.373 51.5058 772.513 53.8704 768.092 58.4968C763.671 63.1232 761.101 69.0861 760.279 76.2827H807.057V74.7406C807.057 72.0676 806.646 69.2917 805.823 66.5159C805.001 63.74 803.767 61.1698 802.019 58.908C800.374 56.6462 798.112 54.7957 795.439 53.4591C792.766 52.1226 789.476 51.5058 785.57 51.5058Z" fill="#011932"/>
</svg>
